<svg width="100" height="100" viewBox="0 0 100 100" fill="none" xmlns="http://www.w3.org/2000/svg">
<path d="M49.9386 11.9585C50.836 11.9585 52.0283 12.5185 53.4132 14.3208C54.776 16.0946 56.0893 18.7868 57.2286 22.2925C59.5003 29.2822 60.9386 39.0638 60.9386 49.9585C60.9386 60.8532 59.5003 70.6348 57.2286 77.6245C56.0893 81.1302 54.776 83.8224 53.4132 85.5962C52.0283 87.3985 50.836 87.9585 49.9386 87.9585C49.0412 87.9585 47.8489 87.3985 46.464 85.5962C45.1012 83.8224 43.7879 81.1302 42.6486 77.6245C40.3769 70.6348 38.9386 60.8532 38.9386 49.9585C38.9386 39.0638 40.3769 29.2822 42.6486 22.2925C43.7879 18.7868 45.1012 16.0946 46.464 14.3208C47.8489 12.5185 49.0412 11.9585 49.9386 11.9585Z" stroke="url(#paint0_linear_7_2)" stroke-width="4"/>
<path d="M87.9386 49.9585C87.9386 50.8559 87.3786 52.0482 85.5763 53.4331C83.8025 54.796 81.1103 56.1092 77.6046 57.2485C70.6149 59.5202 60.8333 60.9585 49.9386 60.9585C39.0439 60.9585 29.2623 59.5202 22.2726 57.2485C18.7669 56.1092 16.0747 54.7959 14.3009 53.4331C12.4986 52.0482 11.9386 50.8559 11.9386 49.9585C11.9386 49.0612 12.4986 47.8688 14.3009 46.4839C16.0747 45.1211 18.7669 43.8078 22.2726 42.6685C29.2623 40.3968 39.0439 38.9585 49.9386 38.9585C60.8333 38.9585 70.6149 40.3968 77.6046 42.6685C81.1103 43.8078 83.8025 45.1211 85.5763 46.4839C87.3786 47.8688 87.9386 49.0612 87.9386 49.9585Z" stroke="url(#paint1_linear_7_2)" stroke-width="4"/>
<path d="M23.0685 76.8286C22.434 76.194 21.9868 74.9549 22.282 72.7012C22.5726 70.4833 23.5477 67.651 25.2209 64.3665C28.5571 57.8177 34.4566 49.8841 42.1604 42.1803C49.8641 34.4766 57.7978 28.577 64.3465 25.2408C67.6311 23.5676 70.4634 22.5925 72.6813 22.3019C74.935 22.0068 76.1741 22.4539 76.8086 23.0884C77.4431 23.723 77.8903 24.9621 77.5951 27.2158C77.3046 29.4337 76.3295 32.266 74.6562 35.5505C71.3201 42.0993 65.4205 50.0329 57.7167 57.7367C50.013 65.4404 42.0793 71.34 35.5306 74.6762C32.2461 76.3494 29.4137 77.3245 27.1958 77.6151C24.9422 77.9103 23.703 77.4631 23.0685 76.8286Z" stroke="url(#paint2_linear_7_2)" stroke-width="4"/>
<path d="M76.8086 76.8286C76.1741 77.4631 74.935 77.9103 72.6813 77.6151C70.4634 77.3245 67.6311 76.3494 64.3466 74.6762C57.7978 71.34 49.8641 65.4404 42.1604 57.7367C34.4567 50.0329 28.5571 42.0993 25.2209 35.5505C23.5477 32.266 22.5726 29.4337 22.282 27.2158C21.9868 24.9621 22.434 23.723 23.0685 23.0884C23.703 22.4539 24.9422 22.0068 27.1958 22.3019C29.4137 22.5925 32.2461 23.5676 35.5306 25.2408C42.0793 28.577 50.013 34.4766 57.7167 42.1803C65.4205 49.8841 71.3201 57.8177 74.6562 64.3665C76.3295 67.651 77.3046 70.4833 77.5951 72.7012C77.8903 74.9549 77.4431 76.194 76.8086 76.8286Z" stroke="url(#paint3_linear_7_2)" stroke-width="4"/>
<path d="M84.9199 64.8012C84.5694 65.6272 83.5882 66.5062 81.3881 67.077C79.2229 67.6388 76.2316 67.7961 72.5594 67.4757C65.2377 66.8367 55.6713 64.3401 45.642 60.0847C35.6127 55.8293 27.17 50.6845 21.6228 45.8632C18.8407 43.4451 16.8752 41.1846 15.7747 39.2372C14.6565 37.2583 14.6067 35.9419 14.9572 35.1159C15.3077 34.2898 16.289 33.4108 18.489 32.84C20.6542 32.2782 23.6456 32.1209 27.3177 32.4413C34.6395 33.0803 44.2059 35.5769 54.2351 39.8323C64.2644 44.0878 72.7072 49.2325 78.2543 54.0538C81.0365 56.4719 83.0019 58.7325 84.1025 60.6799C85.2207 62.6587 85.2704 63.9751 84.9199 64.8012Z" stroke="url(#paint4_linear_7_2)" stroke-width="4"/>
<path d="M85.0838 35.5082C85.425 36.3381 85.3605 37.6539 84.2202 39.6201C83.098 41.555 81.1074 43.7934 78.2983 46.1803C72.6976 50.9392 64.1978 55.9892 54.1215 60.1321C44.0453 64.2751 34.4516 66.6645 27.1231 67.2215C23.4476 67.5008 20.4582 67.31 18.2994 66.7241C16.1059 66.1286 15.1345 65.2388 14.7933 64.4088C14.4521 63.5789 14.5166 62.2631 15.6568 60.2969C16.7791 58.362 18.7697 56.1236 21.5787 53.7367C27.1795 48.9778 35.6793 43.9278 45.7555 39.7849C55.8318 35.6419 65.4255 33.2525 72.7539 32.6955C76.4295 32.4162 79.4189 32.607 81.5776 33.1929C83.7712 33.7884 84.7425 34.6782 85.0838 35.5082Z" stroke="url(#paint5_linear_7_2)" stroke-width="4"/>
<path d="M64.1583 14.7193C64.9904 15.0551 65.8867 16.0206 66.4965 18.2102C67.0965 20.3651 67.3069 23.3532 67.0517 27.0305C66.5427 34.3624 64.2162 43.9716 60.1393 54.0748C56.0625 64.1779 51.0684 72.7106 46.3462 78.3424C43.9778 81.1671 41.7525 83.1723 39.8249 84.3072C37.8662 85.4603 36.5509 85.5335 35.7188 85.1977C34.8866 84.8619 33.9904 83.8964 33.3806 81.7068C32.7805 79.5519 32.5701 76.5638 32.8254 72.8865C33.3344 65.5546 35.6609 55.9454 39.7377 45.8423C43.8146 35.7391 48.8087 27.2064 53.5309 21.5746C55.8993 18.75 58.1246 16.7447 60.0521 15.6098C62.0108 14.4567 63.3261 14.3836 64.1583 14.7193Z" stroke="url(#paint6_linear_7_2)" stroke-width="4"/>
<path d="M35.4742 14.819C36.304 14.4775 37.6198 14.5414 39.5864 15.6809C41.5218 16.8024 43.761 18.7921 46.149 21.6002C50.9102 27.1991 55.9635 35.6969 60.1105 45.7715C64.2574 55.8461 66.6507 65.4388 67.2106 72.767C67.4914 76.4425 67.3018 79.4319 66.7167 81.5909C66.1221 83.7847 65.2327 84.7564 64.4029 85.098C63.5731 85.4396 62.2573 85.3756 60.2906 84.2361C58.3552 83.1146 56.116 81.1249 53.7281 78.3168C48.9669 72.718 43.9135 64.2202 39.7666 54.1456C35.6196 44.0709 33.2264 34.4782 32.6664 27.15C32.3856 23.4746 32.5752 20.4851 33.1603 18.3261C33.7549 16.1323 34.6444 15.1606 35.4742 14.819Z" stroke="url(#paint7_linear_7_2)" stroke-width="4"/>
<circle cx="50" cy="50" r="7" fill="#34B6B6"/>
<defs>
<linearGradient id="paint0_linear_7_2" x1="49.9386" y1="9.9585" x2="49.9386" y2="89.9585" gradientUnits="userSpaceOnUse">
<stop stop-color="#34B5B5"/>
<stop offset="1" stop-color="#82C794"/>
</linearGradient>
<linearGradient id="paint1_linear_7_2" x1="89.9386" y1="49.9585" x2="9.9386" y2="49.9585" gradientUnits="userSpaceOnUse">
<stop stop-color="#34B5B5"/>
<stop offset="1" stop-color="#82C794"/>
</linearGradient>
<linearGradient id="paint2_linear_7_2" x1="21.6543" y1="78.2428" x2="78.2228" y2="21.6742" gradientUnits="userSpaceOnUse">
<stop stop-color="#34B5B5"/>
<stop offset="1" stop-color="#82C794"/>
</linearGradient>
<linearGradient id="paint3_linear_7_2" x1="78.2228" y1="78.2428" x2="21.6543" y2="21.6742" gradientUnits="userSpaceOnUse">
<stop stop-color="#34B5B5"/>
<stop offset="1" stop-color="#82C794"/>
</linearGradient>
<linearGradient id="paint4_linear_7_2" x1="86.7611" y1="65.5824" x2="13.1161" y2="34.3347" gradientUnits="userSpaceOnUse">
<stop stop-color="#34B5B5"/>
<stop offset="1" stop-color="#82C794"/>
</linearGradient>
<linearGradient id="paint5_linear_7_2" x1="86.9335" y1="34.7476" x2="12.9436" y2="65.1694" gradientUnits="userSpaceOnUse">
<stop stop-color="#34B5B5"/>
<stop offset="1" stop-color="#82C794"/>
</linearGradient>
<linearGradient id="paint6_linear_7_2" x1="64.9067" y1="12.8647" x2="34.9704" y2="87.0524" gradientUnits="userSpaceOnUse">
<stop stop-color="#34B5B5"/>
<stop offset="1" stop-color="#82C794"/>
</linearGradient>
<linearGradient id="paint7_linear_7_2" x1="34.7129" y1="12.9696" x2="65.1641" y2="86.9474" gradientUnits="userSpaceOnUse">
<stop stop-color="#34B5B5"/>
<stop offset="1" stop-color="#82C794"/>
</linearGradient>
</defs>
</svg>
